<svg width="96" height="96" viewBox="0 0 96 96" fill="none" xmlns="http://www.w3.org/2000/svg">
<path d="M91.2878 95.562H4.70787C2.1166 95.562 0 93.4411 0 90.8498V4.7165C0 2.11876 2.1166 0 4.70787 0H91.2878C93.8834 0 96 2.11876 96 4.7165V90.8498C96 93.4411 93.8834 95.562 91.2878 95.562Z" fill="#DF146E"/>
<path d="M68.8143 52.3238L38.3771 47.4779L42.496 65.4485L68.8143 52.3238ZM70.0485 50.8523L46.1164 17.606L38.2995 45.8834L70.0485 50.8523ZM36.8172 45.4972L11.7395 13.4612L44.5802 17.3859L36.8172 45.4972ZM24.6505 32.2194L10.7362 19.1012H14.3933L24.6505 32.2194ZM77.5202 34.7006L71.6321 50.6733L62.0826 37.4731L77.5202 34.7006ZM46.2092 65.2284L69.317 55.9507L70.2966 53.0056L46.2092 65.2284ZM26.9354 82.1029L36.8366 47.3614L41.8552 69.9708L26.9354 82.1029ZM78.9313 34.8214L76.4975 41.415L85.2552 41.264L78.9313 34.8214Z" fill="white"/>
</svg>
